<svg height="100" viewBox="0 0 100 100" width="100" xmlns="http://www.w3.org/2000/svg"><path d="M50 0C22.386 0 0 22.386 0 50s22.386 50 50 50 50-22.387 50-50S77.614 0 50 0z" fill="#324D5B"/><path d="M19 82.998v-56L.188 45.81A50.428 50.428 0 0 0 0 50c0 12.65 4.707 24.192 12.452 33H19z" fill="#2B424D"/><path d="M89 81.272V57L49.975 38 11 57v24.272C20.164 92.687 34.224 100 50 100c15.775 0 29.836-7.313 39-18.728z" fill="#DA9C44"/><path d="M19 27h63a2 2 0 0 1 2 2v46a2 2 0 0 1-2 2H19a2 2 0 0 1-2-2V29a2 2 0 0 1 2-2z" fill="#F3F3F3"/><path d="M38 32h7l4-5h-7l-4 5zm30-5l-4 5h7l4-5h-7zm-51 2v3h3l4-5h-5a2 2 0 0 0-2 2z" fill="#26A6D1"/><path d="M51 32h7l4-5h-7l-4 5zm-26 0h7l4-5h-7l-4 5zm57-5h-1l-4 5h7v-3a2 2 0 0 0-2-2z" fill="#E2574C"/><path d="M73.5 47h-17a1.5 1.5 0 0 0 0 3h17a1.5 1.5 0 0 0 0-3zm-3 6h-14a1.5 1.5 0 0 0 0 3h14a1.5 1.5 0 0 0 0-3zm-31.483-4.04l.682 3.585L34 44l-8 12c0 1.104 5.148 2 11.5 2S49 57.103 49 56l-7-10-2.983 2.96zM40 44a2 2 0 1 0 0-4.002 2 2 0 0 0 0 4zm16.5 0h17a1.5 1.5 0 0 0 0-3h-17a1.5 1.5 0 0 0 0 3z" fill="#DFE1E2"/><path d="M89 81.272V57L49.975 76 11 57v24.272C20.164 92.687 34.224 100 50 100c15.775 0 29.836-7.313 39-18.728z" fill="#F4B459"/><path d="M89 57L20.59 90.427A49.762 49.762 0 0 0 49.984 100h.034C65.787 99.994 79.84 92.682 89 81.272V57z" fill="#F6C37A"/></svg>