<svg height="100" viewBox="0 0 100 100" width="100" xmlns="http://www.w3.org/2000/svg"><path d="M49.986 0c-27.614 0-50 22.386-50 50s22.386 50 50 50 50-22.386 50-50-22.385-50-50-50z" fill="#EDEDED"/><path d="M19.985 35l30-14.986L79.988 35l-.017 1.98-29.984 15.005-29.99-14.98-.01-2.005z" fill="#EFC75E"/><path d="M19.986 35l29.977 15 30.023-15v30l-30.11 15-29.89-15V35z" fill="#E7BF55"/><path d="M49.986 79.945V49.987l-.023.012-29.977-15v30l29.89 15z" fill="#DBB551"/><path d="M61.99 43.99v8.793l2.678.216 1.707-2.034 1.607.253V40.996z" fill="#F1D999"/><path d="M31.967 29.015l30.51 15.28 5.502-3.26-30-15.024z" fill="#F7E3AF"/><path d="M43.98 63.122l-9.985-5.01c-.55-.277-.998.06-.998.75v6.262c0 .692.447 1.478.998 1.754l9.984 5.01c.55.276.997-.06.997-.752v-6.26c0-.692-.448-1.478-.998-1.754zm-2.498 5.01l-5.99-3.008c-.275-.138-.5-.53-.5-.876s.225-.514.5-.376l5.99 3.006c.275.14.5.53.5.877s-.224.514-.5.376zm.998-2.005l-6.988-3.507c-.275-.14-.5-.53-.5-.877s.225-.514.5-.376l6.988 3.508c.276.138.5.53.5.876 0 .347-.223.516-.5.377z" fill="#F2F2F2"/></svg>