<svg xmlns="http://www.w3.org/2000/svg" width="1728.173" height="2038.439" viewBox="0 0 1728.173 2038.439"><circle fill="none" stroke="#000" stroke-width="72" stroke-miterlimit="10" cx="860.577" cy="876.051" r="723.073"/><path stroke="#000" stroke-width="4" stroke-miterlimit="10" d="M804.08 117.01c10.38-22.262-17.423-70.453 17.99-81.307 2.5 4.124 9.832 7.478 12.014 11.015 6.255-10.546 10.052-19.413 20.238-25.263 4.196 9.43 10.53 17.57 18.776 23.918 16.14-14.933 23.248 9.148 24.04 20.563.424 6.122-2.797 46.666-3.727 48.742-12.497 27.892-60.36 6.09-89.33 5.333M592.24 159.857c6.997-23.547-27.583-67.13 5.852-83.07 3.077 3.712 10.823 5.954 13.5 9.13 4.638-11.35 7.09-20.678 16.308-27.96 5.536 8.71 12.996 15.833 22.086 20.9 13.77-17.142 24.34 5.634 26.8 16.81 1.318 5.992 4.088 46.57 3.474 48.76-8.265 29.425-58.813 14.89-87.578 18.397M439.657 247.06c-.655-24.554-47.052-55.257-20.212-80.784 4.077 2.574 12.136 2.3 15.667 4.49.887-12.228.325-21.857 6.827-31.64 7.964 6.562 17.267 11.02 27.48 13.016 7.773-20.57 24.887-2.196 30.693 7.664 3.113 5.288 18.336 43.003 18.432 45.276 1.273 30.538-51.29 32.403-77.547 44.664M296.508 365.462c-3.48-24.316-53.105-49.47-29.385-77.918 4.346 2.087 12.32.888 16.08 2.656-.527-12.25-2.195-21.75 3.137-32.217 8.668 5.6 18.422 8.957 28.798 9.763 5.352-21.328 24.468-5.05 31.37 4.077 3.703 4.894 23.17 40.604 23.526 42.85 4.783 30.19-47.215 38.098-71.885 53.302M188.628 541.836c-14.782-19.618-70.384-17.7-63.337-54.065 4.814-.27 11.22-5.167 15.367-5.433-6.374-10.475-12.418-17.99-12.8-29.73 10.295.722 20.458-1.045 29.934-5.346-5.603-21.262 18.996-16.228 29.445-11.567 5.604 2.5 39.887 24.383 41.283 26.18 18.756 24.13-22.97 56.15-37.24 81.372M999.69 133.57c13.674-20.407-6.405-72.293 30.257-77.584 1.835 4.458 8.566 8.898 10.18 12.728 7.8-9.46 12.912-17.64 23.875-21.857 2.7 9.96 7.708 18.98 14.884 26.516 18.24-12.28 21.568 12.608 20.6 24.01-.52 6.113-9.926 45.683-11.163 47.59-16.63 25.645-60.582-3.246-89.092-8.438M1196.113 200c17.676-17.058 9.015-72.015 45.966-69.44.85 4.745 6.493 10.508 7.26 14.59 9.622-7.6 16.348-14.513 27.955-16.318.533 10.306 3.524 20.18 8.944 29.062 20.423-8.148 18.416 16.88 15.06 27.82-1.8 5.866-19.353 42.556-20.966 44.16-21.674 21.55-58.528-15.976-85.298-27.075M1363.053 342.764c18.075-16.633 10.72-71.78 47.6-68.33.74 4.763 6.242 10.658 6.912 14.758 9.8-7.37 16.688-14.122 28.334-15.652.288 10.316 3.044 20.257 8.252 29.266 20.61-7.66 18.013 17.312 14.397 28.17-1.94 5.82-20.358 42.084-22.01 43.65-22.177 21.03-58.132-17.358-84.63-29.088M1472.583 501.378c20.44-13.62 21.747-69.24 57.643-60.1-.01 4.82 4.51 11.5 4.534 15.655 10.826-5.756 18.68-11.356 30.423-11.057-1.317 10.236-.142 20.484 3.603 30.193 21.552-4.365 15.103 19.9 9.844 30.064-2.82 5.45-26.653 38.408-28.526 39.697-25.178 17.33-54.728-26.183-79.08-41.89M1566.66 666.125c24.09-4.794 46.514-55.712 76.208-33.57-1.848 4.453-.217 12.35-1.78 16.2 12.204-1.19 21.6-3.372 32.34 1.384-5.12 8.958-7.943 18.88-8.185 29.284 21.586 4.187 6.37 24.158-2.37 31.546-4.685 3.96-39.286 25.338-41.51 25.816-29.884 6.414-40.603-45.08-57.123-68.887M1600.66 862.968c24.344 3.283 62.076-37.602 82.98-7.02-3.194 3.61-4.215 11.61-6.942 14.745 11.93 2.833 21.524 3.82 30.142 11.804-7.753 6.812-13.643 15.28-17.247 25.043 19.06 10.965-1.815 24.917-12.478 29.07-5.72 2.226-45.385 11.217-47.643 10.947-30.348-3.63-23.776-55.816-31.676-83.697M118.18 717.027c-15.177-19.313-70.73-16.267-64.422-52.767 4.808-.367 11.112-5.395 15.252-5.745-6.585-10.343-12.782-17.734-13.402-29.465 10.308.514 20.432-1.46 29.82-5.953-6.037-21.145 18.66-16.612 29.202-12.164 5.653 2.386 40.375 23.567 41.807 25.334 19.243 23.746-21.824 56.607-35.58 82.113M97.21 927c-19.43-15.03-72.562 1.47-75.345-35.466 4.573-1.528 9.46-7.942 13.39-9.29-8.908-8.426-16.72-14.083-20.18-25.31 10.12-2.014 19.458-6.397 27.466-13.043-11.008-19.034 14.048-20.66 25.356-18.917 6.064.936 44.903 13.01 46.723 14.375 24.45 18.337-7.363 60.22-14.483 88.31M1548.544 1065.564c23.56 6.953 67.08-27.705 83.08 5.702-3.707 3.083-5.935 10.834-9.107 13.517 11.358 4.618 20.69 7.055 27.99 16.258-8.7 5.553-15.81 13.025-20.86 22.125 17.167 13.74-5.59 24.35-16.76 26.83-5.992 1.33-46.564 4.17-48.755 3.56-29.44-8.212-14.996-58.785-18.555-87.545M1483.686 1265.617c19.798 14.538 72.5-3.287 76.208 33.567-4.533 1.643-9.258 8.176-13.153 9.622 9.117 8.2 17.067 13.66 20.81 24.795-10.068 2.27-19.293 6.884-27.133 13.73 11.482 18.753-13.524 21.006-24.874 19.545-6.085-.783-45.214-11.883-47.067-13.2-24.903-17.72 5.854-60.386 12.268-88.646M1375.502 1415.517c12.916 20.894 68.46 24.097 58.1 59.66-4.82-.176-11.647 4.114-15.802 3.997 5.384 11.016 10.712 19.056 10.013 30.782-10.186-1.667-20.468-.84-30.3 2.57 3.626 21.688-20.405 14.414-30.382 8.812-5.35-3.005-37.476-27.947-38.7-29.863-16.46-25.755 28.035-53.803 44.564-77.604M133.23 1111.147c-22.43-10.013-70.157 18.578-81.59-16.653 4.08-2.565 7.314-9.953 10.815-12.192-10.647-6.08-19.575-9.73-25.59-19.82 9.357-4.35 17.395-10.816 23.605-19.167-15.196-15.893 8.766-23.395 20.166-24.374 6.113-.523 46.706 2.03 48.797 2.927 28.093 12.04 7.078 60.255 6.798 89.23M231.52 1298.61c-24.565-.14-56.75 45.24-81.397 17.59 2.705-3.99 2.692-12.056 4.996-15.515-12.196-1.28-21.838-1.03-31.406-7.846 6.817-7.75 11.574-16.904 13.898-27.047-20.307-8.435-1.39-24.944 8.653-30.43 5.386-2.94 43.574-16.937 45.848-16.957 30.562-.285 30.728 52.312 42.132 78.952M406.124 1486.127c-22.936 8.793-36.44 62.765-69.446 45.954 1.07-4.7-1.87-12.208-.98-16.268-11.828 3.235-20.72 6.97-32.11 4.097 3.537-9.696 4.643-19.952 3.125-30.247-21.983-.482-10.356-22.736-2.992-31.494 3.95-4.696 34.446-31.608 36.558-32.455 28.372-11.366 47.63 37.577 67.934 58.255"/><path d="M631.86 1519.847c-37.452-43.17 22.684-79.654 62.954-62.954 22.52 9.34 24.518 28.45 39.412 46.16 14.518 17.265 43.224 15.056 64.46 13.87 51.76-2.884 106.695-4.41 157.526 2.924 9.595 1.385 57.3 16.406 47.325 34.193-4.34 7.74-29.833 2.098-37.194 1.805-14.55-.58-20.28 18.35-33.975 21.075-60.547 12.047-142.485 10.468-204.48-4.125-24.742-5.824-48.666-12.985-67.9-30.078-9.6-8.528-25.062-15.542-31.128-27.37"/><path fill="none" d="M-172.1 727.887c1.405 1.413 2.503 1.463 3.297.152-2.074-1.92-4.437-4.79-6.296-6.153"/><path d="M763.854 1512.347c-9.93-19.783 50.38-15.82 59.663-18.333 26.112-7.063 26.86-36.003 21-57.83-5.408-20.138-11.964-46.025-21.755-65.24-9.312-18.277-30.643-33.005-34.987-53.51-3.24-15.29-1.683-21.06-12.333-34.61-8.185-10.414-15.39-21.47-21.676-32.963-11.52-21.06-21.416-44.628-10.91-68.996 8.74-20.275 26.476-43.668 44.997-56.997 23.39-16.835 31.663-26.614 56.998-10.833 16.16 10.065 44.04 19.796 53.587 36.666 14.218 25.12-20.41 40.045-36.676 51.034-19.984 13.503-22.014 39.954-4.873 57.827 13.603 14.184 47.78 31.54 18.224 45.56-3.11 19.902 10.358 38.55 17.37 55.604 7.23 17.587 10.207 36.68 18.362 53.552 8.854 18.32 24.033 25.66 30.004 45.075 5.718 18.595 15.24 43.322 13.488 64.6-32.646-1.464-66.934-4.893-100.78-4.9-17.48-.004-35.795-1.265-53.7-1.2-8.705.03-33.303 7.077-37.65.004"/><path d="M817.85 1096.868c-22.397-13.607 15.787-31.172 24.334-37.164 8.44-5.918 11.65-11.16 22.165-12 8.714-.695 22.538 3.412 31.497 5.3 21.104 4.442 40.42 10.747 62.997 14.2 22.866 3.497 43.78.104 65.81-1.567-6.572 19.915-29.888 31.673-44.806 45.065-8.36 7.506-14.15 16.535-20.627 25.498-7.463 10.325-12.237 10.945-22.54 18-11.418 7.816-13.198 14.324-28.828 10.493-10.86-2.66-19.022-9.223-28.427-15.66-18.584-12.725-49.838-31.3-61.945-50.288-1.345-2.108-1.733-2.643-2.63-4.876"/><path d="M541.865 1186.864c-7.734 7.213-21.928 20.463-34.237 25.76-4.18 12.44-27.986 24.203-39.67 18.15-8.11-4.202-7.782-13.87-13.016-18.406-6.038-5.23-16.334-5.09-22.417-10.206 2.808-.23 4.85-1.68 6.814-2.138-6.945-6.216-14.814-8.9-23.354-10.488 2.854-.512 5.756-3.942 8.28-5.344-8.353-5.884-32.06-4.453-33.627-19.57 35.233-23.944 78.072-42.84 118.304-58.75 24.755-9.788 49.025-18.942 73.05-31.497 26.468-13.83 52.585-35.4 76.752-53.965 18.245-14.016 39.102-19.817 58.566-30.413 16.472-8.966 30.446-22.758 46.135-32.92 15.567-10.085 30.513-15.987 48.403-20.744 25.234-6.71 71.015-1.682 88.937-20.8-4.126 18.736 25.498 46.48 33.76 62.83 9.706 19.215 9.634 44.817 6.036 65.747-12.715 5.032-22.31-1.985-34.23-4.32-14.79-2.898-31.49-2.9-46.5-4.417-29.296-2.96-48.326 8.112-70.172 25.494-42.308 33.664-98.848 37.866-145.855 59.668-24.94 11.568-17.475 38.39-40.463 51.41-15.764 8.928-46.898 22.012-64.497 16.42"/><path d="M892.847 925.877c5.577-5.067 21.355-2.42 31.5-3.333 12.406-1.117 24.1-6.02 35.997-8.71 25.173-5.69 49.35-5.553 74.996-2.956 26.658 2.7 34.907 10.554 46.497 34.576 4.27 8.853 9.55 18.13 10.166 28.42.788 13.14 3.587 22.82 4.87 36 1.434 14.758-4.728 48.747-13.13 60.402-16.116 22.352-31.49-15.86-51.398-9.072-11.038 3.763-13.6 11.07-27.004 11.666-12.142.54-22-2.78-33.078 1.103-19.213 6.734-48.113-22.17-58.42-9.958-8.04-6.585-38.087-7.19-34.272-23.844.832-3.632 12.89-8.504 15.11-10.43 7.004-6.062 9.797-8.34 11.667-18.666 3.084-17.03-1.704-41.406-7.166-56.733-3.32-9.317-16.156-25.707-7.833-32.963"/><path d="M892.847 931.876c-8.62-8.486-7.445-27.77-12.405-38.993-4.088-9.252-9.956-16.69-18.004-23.666-7.415-6.426-16.02-12.678-25.17-15.255-10.905-3.072-27.156 2.212-37.45-3.005-8.76-4.44-13.84-20.1-11.71-30.154 2.764-13.035 11.5-14.37 23.743-14.92 27.61-1.248 46.703.284 73.498-7.874 25.527-7.773 50.408-12.025 75.08-1.544 11.365 4.83 20.067 9.218 31.49 12.338 9.535 2.604 23.777 5.906 30.294 14.706 2.036 2.75 5.045 10.4 4.197 13.836-2.748 11.14-6.99 4.583-13.57 9.034-13.503 9.137-5.29 7.09 5.705 17.96 15.432 15.26 37.503 31.37 51.253 48.076 7.09 8.614 24.535 31.363 17.777 41.62-7.533 11.432-45.433 7.837-57.074 7.837-28.47 0-52.016-7.883-79.495-13.873-14.28-3.113-44.924-4.2-52.414-17.37-3.553-.243-4.402-1.7-7.243-3.255"/><path d="M679.858 897.378c-20.653 15.588-37.264 38.786-52.874 59.925-7.19 9.737-15.18 22.11-24.004 29.654-4.604 3.938-7.403 10.044-14.695 7.99-7.992-2.254-6.547-9.42-.454-12.15-16.994.816-71.124-5.94-70.114-29.838.41-9.683 19.413-23.944 25.272-31.994 6.936-9.53 14.096-23.836 25.614-28.35 3.232-13.944-17.187-8.552-9.11-24.107 4.438-8.548 20.943-13.386 28.87-16.13 20.552-7.11 41.99-10.1 60.035-23.627 43.017-32.243 94.083-52.404 132.254-88.794 27.883-26.582 80.79-79.72 122.66-58.98 24.687 12.225 28.07 39.68 31.61 63.407 3.6 24.113 6.992 51.148-19.463 64.115-25.852 12.67-59.015 6.457-87.107 7.882-22.974 1.165-43.176 5.475-62.586 18.375-20.87 13.87-34.443 33.395-54.37 47.25-17.072 11.87-33.52 20.877-49.537 33.37M1018.84 849.38c-.478 1.662 16.152-5.682 31.16-1.126 9.82 2.98 19.877 7.927 28.833 12.797 22.853 12.43 46.367 26.93 70.506 37.494 28.19 12.338 58.975 19.53 87.145 31.91 23.838 10.477 48.95 14.216 72.252 25.79 37.756 18.75 76.364 39.042 113.25 60.045 18.908 10.766 35.41 24.22 54.325 35.247 14.737 8.592 38.117 12.51 49.498 25.23 9.085-18.19 28.512-39.42 25.503-60.895-3.344-23.865-34.98-34.18-55.497-42.075-26.208-10.086-52.643-17.434-79.495-25.726-49.556-15.3-104.68-19.343-143.872-54.84-22.02-19.946-15.098-26.733-30.688-30.946-25.27-6.83-98.44-30.7-85.833-30.667 13.174.034 50.977-7.156 62.737-10.284 13.03-3.466 23.12-1.874 37.164-.486 23.34 2.307 48.582 1.837 72 6.368 28.273 5.47 57.73.94 85.492 7.166 28.128 6.308 55.107 12.094 83.995 13.5 18.28.89 53.55 4.775 64.796-11.772 14.38 4.52 13.458 35.353 17.29 47.736 4.617 14.918 20.55 28.647 18.148 44.77-7.812 6.868-16.572 3.634-25.236.674-29.483-10.073-60.652-12.497-91.496-17.32-26.73-4.183-52.09-11.7-77.996-17.888-44.79-10.697-90.152-28.956-136.943-24.703-41.354 3.76-155.81-60.593-181.113-72.112-21.23-9.666-46.318-13.978-68.93-19.542-15.734-3.872-70.91-19.023-58.897 15.07 4.645 13.184 24.696 27.964 34.904 37.083M214.88 852.38c26.31-3.593 42.356 13.52 61.498 28.493 24.235 18.957 42.993 32.84 74.996 34.504 28.47 1.48 52.975-3.5 79.574-10.868 24.448-6.772 46.587-21.394 70.752-29.302 19.27-6.308 42.55-17.83 59.664-29.16 28.546-18.902 7.202-42.777-14.994-57.786-18.525-12.526-52.825-24.312-59.997 2.62-7.352 27.61-22.166 35.18-46.836 49.205-21.873 12.434-46.8 24.262-73.497 24.328-31.413.077-60.636-24.912-82.162-44.955-25.343-23.598-96.814-91.447-118.868-33.45-15.043 39.56 20.408 79.447 60.37 67.87"/><path d="M630.36 808.882c-15.243 14.66-40.793 24.07-60.325 28.17-22.363 4.696-40.436-14.29-58.537-26.337-20.09-13.372-27.265-25.842-11.255-44.955 11.748-14.024 26.465-33.212 29.657-51.34 3.48-19.762-5.502-43.226-4.273-64.338 1.342 1.062 8.33-17.097 11.738-30.19 3.593-13.805 5.4-28.697 25.242-16.243 2.947 25.64 26.374 18.284 35.01 38.475 16.812-5.34 45.744 11.578 48 31.498 8.166-.376 14.42-12.45 20.67-18.03 10.35-9.25 19.477-11.08 31.57-16.167 20.615-8.674 40.54-24.91 61.865-29.665 28.737-6.408 48.486 14.68 58.54 40.125 5.188 13.13 9.092 26.02 15.71 39.003 5.78 11.337 15.88 28.928 13.954 41.998-4.412 29.932-35.3 16.188-52.574 13.5-18.876-2.937-43.595 3.148-60.04 13.128-20.583 12.49-36.705 23.75-59.58 32.243-16.047 5.958-33.315 16.215-49.872 20.625M625.86 1584.342c-8.89 19.294-10.032 51.023.334 70.198 6.868 12.703 11.578 16.492 2.7 29.963-5.137 7.798-15.043 16.643-22.827 22.462-17.65 13.198-38.83 15.902-51.83 35.243-11.94 17.763-13.732 39.646-20.2 59.29-4.62 14.03-9.947 9.9-18.873 18.22-7 6.523-8.915 19.12-12.298 27.11-7.54 17.813-10.094 35.813-14.67 53.998-9.68 38.462-23.992 83.775-13.94 123.938 20.247.358 43.21 10.75 64.687 9.598 34.068-1.83 764.393 6.414 771.398 3.41 3.858-24.78 2.256-50.136-.478-76.95-1.742-17.083-6.593-33.757-10.612-50.697-3.458-14.57-2.346-31.438-7.427-45.297-10.148-27.677-38.236-21.864-50.66-43.503-6.208-10.815-9.2-23.597-16.46-34.53-9.918-14.935-19.295-18.11-33.03-27.296-16.7-11.168-45.462-37.66-51.337-55.164-3.252-9.688-3.597-25.854-2.666-35.998.496-5.417 5.176-12.057 5.36-16.833.227-5.82-5.362-13.333-4.302-19.165 4.67-25.685 39.807-21.103 39.105-50.998-.612-26.098-40.362-21.74-57.325-26.587-31.37-8.964-55.89 10.068-86.967 11.588-34.09 1.666-67.212 8.624-101.172 10.577-24.917 1.434-44.488-3.19-66.752-7.5-32.826-6.354-69.713 3.107-103 4.423-20.235.8-38.52 2.32-58.76 1.5-15.145-.613-33.553-11.463-48.063-6.406-10.597 3.693-17.196 12.5-29.753 14.24 1.427 2.017-.165.71-1.68 1.165"/><path d="M389.956 701.114c-13.793 6.668-16.58-11.912-22.083-19.726-6.54-9.286-16.33-16.07-22.87-25.46-13.638-19.586-27.004-40.33-39.753-60.41-22.2-34.966-22.604-94.66 28.16-103.12 22.412-3.735 45.328 8.333 57.34 28.456 5.348 8.96 9.822 20.297 14.288 30.12 5.803 12.763 3.17 16.14-.827 28.76-17.213 54.355 32.964 84.085 74.664 104.692 21.004 10.38 48.156 18.32 63.325 37.127 9.967 12.358 2.747 22.183-5.13 36.41-5.917 10.687-11.773 20.347-22.12 25.503-25.45 12.687-35.344-14.13-53.74-28.992-19.073-15.408-42.84-25.988-60.71-41.547-2.223-1.936-3.793-3.71-5.626-6.04M763.478 576.017c4.062-4.842 19.616-11.576 21.41-16.42 7.925-21.41-42.468-29.825-54.032-30.872-26.784-2.425-48.447-4.232-73.497 1.09-12.73 2.703-29.033 3.128-42 3.082-16.854-.06-18.29 4.056-31.46 10.238-15.89 7.46-36.378 7.55-52.903 5.13-15.29-2.24-39.378-.31-48.79-15.74-8.896-14.584-2.303-32.753 13.203-37.083 16.47-4.6 30.307 5.402 44.693 10.265.166-5.867 4.568-14.083 3.286-19.312-1.65-6.723-8.91-10.083-12.024-16.417-6.602-13.42-1.068-27.674 11.593-33.516 16.236-7.493 23.11 3.387 35.237 12.44 18.39 13.726 17.395 1.022 27.938-10.09-12.625-13.497-42.372-38.967-10.233-51.445 22.86-8.875 33.72 22.57 55.195 14.815 5.992-17.55-21.365-25.552-12.106-40.693 7.23-11.82 36.225-14.097 46.64-8.81-4.375-9.644-11.92-19.187-1.64-27.14 7.203-5.577 24.645-3.423 31.91.33 11.27 5.823 12.003 14.848 24.033 19.537 10.812 4.213 22.568 1.973 32.77 8.768-9.69-22.125-19.914-33.126-11.932-58.27 6.003-18.908 18.96-38.038 16.917-58.493-.78-7.804-8.48-25.06-6.03-31.827 2.412-6.66 17.65-13.654 25.16-16.21 29.727-10.118 71.637-11.975 103.304-10.232-2.18 15.17 14.48 27.3 22.687 36.145 14.493 15.62 15.195 23.307 19.462 43.202 2.963 13.82 12.88 27.037 12.07 41.92-.922 16.944-13.125 31.237-10.19 49.35 12.41-1.976 15.905-36.047 23.283-46.76 10.192-14.802 33.344-22.277 46.532-7.124 8.62 9.902 1.595 14.962 16.91 16.568 8.756.918 16.72-7.416 25.088.264 14.408 13.222-.542 39.694 15.787 53.51 9.017-5.977 6.402-20.216 17.922-24.977 8.458-3.495 23.002 1.838 28.57 9.833 7.852 11.27.03 15.736-4.57 26.13-2.875 6.494-9.293 24.8 4.128 25.308 8.618.326 14.723-20.82 22.536-25.31 11.814-6.79 18.89-1.955 28.832 3.87 31.465 18.438-1.985 25.798-12.376 46.755-15.378 31.017 30.977 39.808 45.075 21.076 7.706-10.24 4.36-21.716 20.964-22.498 10.665-.502 20.332 5.873 24 14.964 7.87 19.508-21.994 44.167-37.503 49.86-23.77 8.726-50.668 4.637-74.99 7.094-28.618 2.89-58.726-2.023-85.825 5.667-12.27 3.482-21.958 11.72-32.67 18.07-11.284 6.692-20.27 5.675-32.998 7.84-31.76 5.4 4.666 37.605 18.076 49.158 10.873 9.367 22.33 16.377 26.51 30.337 4.054 13.536 2.36 28.91 3.745 43.17 2.04 21.016 8.653 58.596.838 79.49-3.086 8.247-13.283 15.815-18.837 24.367-7.725 11.893-19.812 28.382-33.58 33.806-29.73 11.71-38.173 4.12-65.334-3.45-5.42-1.51-10.354-37.547-15.414-39.32-7.997-2.8-12.067-10.05-19.804-13.643-10.282-4.777-21.698-2.464-31.18-9.26-7.404-5.31-13.47-14.772-20.25-21.075-31.73-29.497-63.353-87.86-81.02-104.5"/><path d="M1113.336 651.39c17.632 11.264 24.83 32.472 37.498 48.075 13.722 16.9 25.614 36.315 47.96 26.55 24.453-10.687 39.57-33.1 59.957-49.455 18.503-14.842 32.226-29.875 46.91-47.258 9.167-10.852 6.122-24.728 10.21-37.91 4.036-13.02 11.218-22.068 21.29-31.13 9.68-8.708 21.87-15.14 30.034-25.495 8.153-10.34 8.968-23.812 16.5-34.904 12.676-18.67 35.42-40.51 55.46-21.37 21.89 20.91 35.514 55.46 45.786 82.945 7.13 19.077 21.723 48.43 7.842 65.954-6.243 7.883-15.393 10.483-23.596 15.373-8.83 5.264-15.077 13.2-24.367 17.292-20.723 9.125-46.04 1.32-67.83 7.5-12.308 3.49-11.154 3.403-17.662 12.338-4.624 6.35-4.854 11.6-13.46 16.865-7.117 4.354-15.056 4.268-21.377 8.188-9.28 5.757-15.798 17.88-24.83 24.886-25.142 19.497-53.907 57.233-62.086 87.793-15.828 6.836-57.424-17.63-71.746-26.705-11.168-7.075-22.22-19.45-34.827-23.663-13.037-4.358-18.67 2.817-29.586 2.547-12.843-.317-18.14-11.78-28.653-17.545-9.462-5.188-21.14-7.937-31.42-12.37-25.35-10.933-28.65-22.81-30-52.17-.67-14.623-.932-28.79-1.464-43.42-.396-10.87-6.15-29.416-3.03-39.403 6.67-21.342 41.353 3.797 53.993 11.993M1151.488 831.98c1.118.298 2.932-.286 4.318-.18 3.4.264 6.607.168 10.117-.195 7.48-.776 14.707-1.94 22.258-2.016 7.13-.072 14.075.274 21.184 1.017 6.09.637 12.29 2.353 17.797 5.01 4.446 2.143 7.374 5.056 10.818 8.513 6.39 6.41 17.168 15.577 14.516 25.833-2.453 9.49-14.923 12.167-23.477 12.153-9.517-.016-19.496-1.91-28.267-5.596-10.106-4.246-19.868-8.52-27.885-16.13-5.104-4.847-9.735-9.755-15.796-13.448-2.45-1.492-5.05-2.754-6.575-5.208-1.027-1.654-1.87-3.57-2.326-5.47-.482-2.01-.704-2.668 1.42-3.218.813-.21 2.202-.85 2.93-.723"/></svg>